HIERARCHY
ROOT mixamorig:Hips
{
	OFFSET 0.000000 201.639420 0.000000
	CHANNELS 6 Xposition Yposition Zposition Xrotation Yrotation Zrotation
	JOINT mixamorig:Spine
	{
		OFFSET 0.006200 19.524994 -2.481800
		CHANNELS 3 Xrotation Yrotation Zrotation
		JOINT mixamorig:Spine1
		{
			OFFSET -0.000900 22.835007 -2.825400
			CHANNELS 3 Xrotation Yrotation Zrotation
			JOINT mixamorig:Spine2
			{
				OFFSET -0.020600 26.552490 -3.193300
				CHANNELS 3 Xrotation Yrotation Zrotation
				JOINT mixamorig:Neck
				{
					OFFSET -0.060000 30.701813 1.352200
					CHANNELS 3 Xrotation Yrotation Zrotation
					JOINT mixamorig:Head
					{
						OFFSET -0.087200 22.547607 3.670900
						CHANNELS 3 Xrotation Yrotation Zrotation
						JOINT mixamorig:HeadTop_End
						{
							OFFSET -0.830600 40.355194 7.893500
							CHANNELS 3 Xrotation Yrotation Zrotation
							End Site
							{
								OFFSET 0.000000 30.592346 0.000000
							}
						}
						JOINT mixamorig:RightEye
						{
							OFFSET -6.302100 18.118591 16.197100
							CHANNELS 3 Xrotation Yrotation Zrotation
							End Site
							{
								OFFSET 0.000000 30.592346 0.000000
							}
						}
						JOINT mixamorig:LeftEye
						{
							OFFSET 6.741500 18.382690 16.401899
							CHANNELS 3 Xrotation Yrotation Zrotation
							End Site
							{
								OFFSET 0.000000 30.592346 0.000000
							}
						}
					}
				}
				JOINT mixamorig:LeftShoulder
				{
					OFFSET 11.924900 18.230499 1.425400
					CHANNELS 3 Xrotation Yrotation Zrotation
					JOINT mixamorig:LeftArm
					{
						OFFSET 25.435989 -0.697632 -5.229300
						CHANNELS 3 Xrotation Yrotation Zrotation
						JOINT mixamorig:LeftForeArm
						{
							OFFSET 54.684776 0.000000 0.000000
							CHANNELS 3 Xrotation Yrotation Zrotation
							JOINT mixamorig:LeftHand
							{
								OFFSET 55.098175 0.000000 0.000000
								CHANNELS 3 Xrotation Yrotation Zrotation
								JOINT mixamorig:LeftHandMiddle1
								{
									OFFSET 23.369751 0.000000 0.000000
									CHANNELS 3 Xrotation Yrotation Zrotation
									JOINT mixamorig:LeftHandMiddle2
									{
										OFFSET 6.378677 0.000000 0.000000
										CHANNELS 3 Xrotation Yrotation Zrotation
										JOINT mixamorig:LeftHandMiddle3
										{
											OFFSET 6.148331 0.000000 0.000000
											CHANNELS 3 Xrotation Yrotation Zrotation
											JOINT mixamorig:LeftHandMiddle4
											{
												OFFSET 6.582504 0.000000 0.000000
												CHANNELS 3 Xrotation Yrotation Zrotation
												End Site
												{
													OFFSET -1.168900 6.395691 1.028606
												}
											}
										}
									}
								}
								JOINT mixamorig:LeftHandThumb1
								{
									OFFSET 7.235672 -3.848206 5.434273
									CHANNELS 3 Xrotation Yrotation Zrotation
									JOINT mixamorig:LeftHandThumb2
									{
										OFFSET 6.568451 -3.792297 3.792300
										CHANNELS 3 Xrotation Yrotation Zrotation
										JOINT mixamorig:LeftHandThumb3
										{
											OFFSET 6.063080 -3.500519 3.500518
											CHANNELS 3 Xrotation Yrotation Zrotation
											JOINT mixamorig:LeftHandThumb4
											{
												OFFSET 4.793182 -2.767334 2.767349
												CHANNELS 3 Xrotation Yrotation Zrotation
												End Site
												{
													OFFSET 0.101639 6.054260 1.275483
												}
											}
										}
									}
								}
								JOINT mixamorig:LeftHandIndex1
								{
									OFFSET 23.101074 -0.309540 4.992809
									CHANNELS 3 Xrotation Yrotation Zrotation
									JOINT mixamorig:LeftHandIndex2
									{
										OFFSET 6.226883 0.000000 0.000000
										CHANNELS 3 Xrotation Yrotation Zrotation
										JOINT mixamorig:LeftHandIndex3
										{
											OFFSET 6.094330 0.000000 0.000000
											CHANNELS 3 Xrotation Yrotation Zrotation
											JOINT mixamorig:LeftHandIndex4
											{
												OFFSET 5.482605 0.000000 0.000000
												CHANNELS 3 Xrotation Yrotation Zrotation
												End Site
												{
													OFFSET -1.427902 5.233032 0.797164
												}
											}
										}
									}
								}
								JOINT mixamorig:LeftHandRing1
								{
									OFFSET 22.299240 0.021149 -3.964172
									CHANNELS 3 Xrotation Yrotation Zrotation
									JOINT mixamorig:LeftHandRing2
									{
										OFFSET 6.321869 0.000000 0.000000
										CHANNELS 3 Xrotation Yrotation Zrotation
										JOINT mixamorig:LeftHandRing3
										{
											OFFSET 5.899796 0.000000 0.000000
											CHANNELS 3 Xrotation Yrotation Zrotation
											JOINT mixamorig:LeftHandRing4
											{
												OFFSET 6.517899 0.000000 0.000000
												CHANNELS 3 Xrotation Yrotation Zrotation
												End Site
												{
													OFFSET -1.637299 6.232208 0.980890
												}
											}
										}
									}
								}
								JOINT mixamorig:LeftHandPinky1
								{
									OFFSET 20.463791 -0.302338 -8.562233
									CHANNELS 3 Xrotation Yrotation Zrotation
									JOINT mixamorig:LeftHandPinky2
									{
										OFFSET 6.908646 0.000000 0.000000
										CHANNELS 3 Xrotation Yrotation Zrotation
										JOINT mixamorig:LeftHandPinky3
										{
											OFFSET 4.622849 0.000000 0.000000
											CHANNELS 3 Xrotation Yrotation Zrotation
											JOINT mixamorig:LeftHandPinky4
											{
												OFFSET 5.216080 0.000000 0.000000
												CHANNELS 3 Xrotation Yrotation Zrotation
												End Site
												{
													OFFSET -0.606308 5.116241 0.814926
												}
											}
										}
									}
								}
							}
						}
					}
				}
				JOINT mixamorig:RightShoulder
				{
					OFFSET -12.001300 18.284088 1.348900
					CHANNELS 3 Xrotation Yrotation Zrotation
					JOINT mixamorig:RightArm
					{
						OFFSET -25.308500 -0.751312 -5.164599
						CHANNELS 3 Xrotation Yrotation Zrotation
						JOINT mixamorig:RightForeArm
						{
							OFFSET -54.684429 0.000000 0.000000
							CHANNELS 3 Xrotation Yrotation Zrotation
							JOINT mixamorig:RightHand
							{
								OFFSET -55.150291 0.000000 0.000000
								CHANNELS 3 Xrotation Yrotation Zrotation
								JOINT mixamorig:RightHandMiddle1
								{
									OFFSET -23.317566 0.000000 0.000000
									CHANNELS 3 Xrotation Yrotation Zrotation
									JOINT mixamorig:RightHandMiddle2
									{
										OFFSET -6.378403 0.000000 0.000000
										CHANNELS 3 Xrotation Yrotation Zrotation
										JOINT mixamorig:RightHandMiddle3
										{
											OFFSET -6.148193 0.000000 0.000000
											CHANNELS 3 Xrotation Yrotation Zrotation
											JOINT mixamorig:RightHandMiddle4
											{
												OFFSET -6.583389 0.000000 0.000000
												CHANNELS 3 Xrotation Yrotation Zrotation
												End Site
												{
													OFFSET 1.171692 6.395905 1.029786
												}
											}
										}
									}
								}
								JOINT mixamorig:RightHandThumb1
								{
									OFFSET -7.190521 -3.860474 5.435846
									CHANNELS 3 Xrotation Yrotation Zrotation
									JOINT mixamorig:RightHandThumb2
									{
										OFFSET -6.567429 -3.791718 3.791708
										CHANNELS 3 Xrotation Yrotation Zrotation
										JOINT mixamorig:RightHandThumb3
										{
											OFFSET -6.062469 -3.500153 3.500166
											CHANNELS 3 Xrotation Yrotation Zrotation
											JOINT mixamorig:RightHandThumb4
											{
												OFFSET -4.792618 -2.767029 2.767022
												CHANNELS 3 Xrotation Yrotation Zrotation
												End Site
												{
													OFFSET -0.100327 6.053253 1.276754
												}
											}
										}
									}
								}
								JOINT mixamorig:RightHandIndex1
								{
									OFFSET -23.048981 -0.310791 4.992554
									CHANNELS 3 Xrotation Yrotation Zrotation
									JOINT mixamorig:RightHandIndex2
									{
										OFFSET -6.227539 0.000000 0.000000
										CHANNELS 3 Xrotation Yrotation Zrotation
										JOINT mixamorig:RightHandIndex3
										{
											OFFSET -6.095047 0.000000 0.000000
											CHANNELS 3 Xrotation Yrotation Zrotation
											JOINT mixamorig:RightHandIndex4
											{
												OFFSET -5.484772 0.000000 0.000000
												CHANNELS 3 Xrotation Yrotation Zrotation
												End Site
												{
													OFFSET 1.420593 5.237305 0.797056
												}
											}
										}
									}
								}
								JOINT mixamorig:RightHandRing1
								{
									OFFSET -22.246323 0.020569 -3.963762
									CHANNELS 3 Xrotation Yrotation Zrotation
									JOINT mixamorig:RightHandRing2
									{
										OFFSET -6.322128 0.000000 0.000000
										CHANNELS 3 Xrotation Yrotation Zrotation
										JOINT mixamorig:RightHandRing3
										{
											OFFSET -5.900024 0.000000 0.000000
											CHANNELS 3 Xrotation Yrotation Zrotation
											JOINT mixamorig:RightHandRing4
											{
												OFFSET -6.518356 0.000000 0.000000
												CHANNELS 3 Xrotation Yrotation Zrotation
												End Site
												{
													OFFSET 1.636398 6.232697 0.982186
												}
											}
										}
									}
								}
								JOINT mixamorig:RightHandPinky1
								{
									OFFSET -20.411011 -0.303314 -8.561701
									CHANNELS 3 Xrotation Yrotation Zrotation
									JOINT mixamorig:RightHandPinky2
									{
										OFFSET -6.907349 0.000000 0.000000
										CHANNELS 3 Xrotation Yrotation Zrotation
										JOINT mixamorig:RightHandPinky3
										{
											OFFSET -4.623840 0.000000 0.000000
											CHANNELS 3 Xrotation Yrotation Zrotation
											JOINT mixamorig:RightHandPinky4
											{
												OFFSET -5.218353 0.000000 0.000000
												CHANNELS 3 Xrotation Yrotation Zrotation
												End Site
												{
													OFFSET 0.602097 5.118835 0.816273
												}
											}
										}
									}
								}
							}
						}
					}
				}
			}
		}
	}
	JOINT mixamorig:LeftUpLeg
	{
		OFFSET 18.168400 -13.561905 -0.039000
		CHANNELS 3 Xrotation Yrotation Zrotation
		JOINT mixamorig:LeftLeg
		{
			OFFSET 0.577358 -80.825211 -3.695000
			CHANNELS 3 Xrotation Yrotation Zrotation
			JOINT mixamorig:LeftFoot
			{
				OFFSET -0.577356 -83.370262 -6.520700
				CHANNELS 3 Xrotation Yrotation Zrotation
				JOINT mixamorig:LeftToeBase
				{
					OFFSET 0.750401 -20.798306 25.135401
					CHANNELS 3 Xrotation Yrotation Zrotation
					JOINT mixamorig:LeftToe_End
					{
						OFFSET -0.000500 0.001200 19.917799
						CHANNELS 3 Xrotation Yrotation Zrotation
						End Site
						{
							OFFSET 0.000000 19.917805 0.000000
						}
					}
				}
			}
		}
	}
	JOINT mixamorig:RightUpLeg
	{
		OFFSET -18.162500 -13.585098 -0.041000
		CHANNELS 3 Xrotation Yrotation Zrotation
		JOINT mixamorig:RightLeg
		{
			OFFSET -0.595024 -80.945297 -3.631900
			CHANNELS 3 Xrotation Yrotation Zrotation
			JOINT mixamorig:RightFoot
			{
				OFFSET 0.595024 -83.218193 -6.561200
				CHANNELS 3 Xrotation Yrotation Zrotation
				JOINT mixamorig:RightToeBase
				{
					OFFSET -0.753601 -20.807106 25.115000
					CHANNELS 3 Xrotation Yrotation Zrotation
					JOINT mixamorig:RightToe_End
					{
						OFFSET 0.000299 0.001700 19.918200
						CHANNELS 3 Xrotation Yrotation Zrotation
						End Site
						{
							OFFSET 0.000000 19.918203 0.000000
						}
					}
				}
			}
		}
	}
}
MOTION
Frames: 4
Frame Time: 0.033333
-3.797016 180.864670 -28.163712 19.249454 -16.206190 0.863030 7.541382 0.442346 -1.756132 12.114152 0.067164 -2.927116 12.110183 0.305558 -2.966575 2.380679 -0.967949 -6.854222 -42.536475 -11.870281 3.440332 -0.000001 0.000001 -0.000001 -0.000001 0.000001 -0.000001 -0.000001 0.000001 -0.000001 1.400553 0.754619 -11.864176 -6.328568 -29.125433 -28.901519 -0.000002 -55.819844 -0.000003 41.144086 -14.244419 17.868050 0.006957 0.309975 -2.569374 0.112681 1.243123 -10.358930 0.028136 0.623145 -5.170852 -0.000003 0.000000 -0.000003 -2.277839 -23.343956 1.940898 5.402101 26.915112 2.051648 0.256272 11.035676 3.436394 0.000000 -0.000000 0.000002 0.007032 0.311901 -2.585349 0.112346 1.241210 -10.342937 0.028139 0.623159 -5.170851 0.000000 -0.000003 -0.000002 0.007034 0.311903 -2.585351 0.112339 1.241217 -10.342926 0.028136 0.623142 -5.170858 -0.000001 -0.000000 0.000002 0.172219 4.362844 -2.081670 0.105447 -2.814097 -10.845387 0.028132 0.623163 -5.170863 0.000002 0.000002 -0.000000 1.989020 4.666852 2.758480 -37.476790 24.722095 76.099188 -0.000006 47.654636 0.000007 22.602412 -1.070678 -2.255769 0.000004 -0.000007 -0.000007 0.268617 -1.917675 15.946593 0.067454 -0.968189 7.971057 -0.000002 -0.000003 -0.000001 -1.832385 0.576348 -5.943155 6.154535 -26.178397 -1.323862 -0.494185 -8.611076 -3.004271 -0.000002 -0.000003 0.000001 -0.000002 -0.000009 -0.000006 0.268625 -1.917663 15.946598 0.067457 -0.968186 7.971065 0.000001 -0.000000 -0.000001 -0.000000 -0.000001 -0.000001 0.268624 -1.917684 15.946591 0.067456 -0.968186 7.971055 -0.000005 0.000000 0.000001 -0.000002 -0.000009 0.000001 0.268621 -1.917669 15.946590 0.067462 -0.968184 7.971061 -0.000001 0.000003 -0.000000 -63.077111 3.211083 26.753697 41.898293 -2.538893 2.548150 2.520663 0.667020 -19.604904 -5.488066 -0.000004 -0.000007 0.000000 -0.000000 0.000000 -50.640433 -5.072722 -16.605865 51.207912 -3.175995 2.094984 -15.476387 -1.933550 12.664761 -1.974855 -0.000015 0.000001 -0.000000 0.000001 -0.000000 
-4.014380 181.030045 -28.460587 19.758957 -16.077767 1.037037 7.595937 0.348752 -1.714521 12.204526 -0.103883 -2.875081 12.203694 0.134653 -2.910993 2.096365 -0.940207 -6.930281 -42.800335 -11.704898 3.320288 0.000001 0.000002 -0.000000 0.000001 0.000002 -0.000000 0.000001 0.000002 -0.000000 1.389847 0.752795 -11.844187 -6.400932 -28.945795 -29.070586 0.000010 -56.877325 0.000016 40.206124 -13.404884 17.796623 0.006955 0.309974 -2.569370 0.112683 1.243123 -10.358936 0.028140 0.623156 -5.170851 -0.000000 0.000003 -0.000003 -2.277835 -23.343944 1.940907 5.402116 26.915112 2.051647 0.256269 11.035677 3.436390 0.000002 0.000000 0.000001 0.007042 0.311889 -2.585345 0.112342 1.241224 -10.342934 0.028141 0.623163 -5.170858 -0.000000 -0.000001 -0.000006 0.007037 0.311884 -2.585348 0.112346 1.241237 -10.342943 0.028144 0.623149 -5.170856 -0.000000 0.000000 0.000004 0.172215 4.362830 -2.081667 0.105441 -2.814067 -10.845396 0.028141 0.623158 -5.170857 0.000000 0.000000 -0.000001 2.110511 4.581291 2.883810 -35.774526 24.783048 76.078035 -0.000010 50.380592 0.000021 23.119287 -0.688932 -2.409466 0.000009 0.000003 -0.000009 0.268607 -1.917671 15.946613 0.067460 -0.968196 7.971039 -0.000001 0.000001 -0.000004 -1.832371 0.576363 -5.943169 6.154532 -26.178414 -1.323849 -0.494178 -8.611072 -3.004295 -0.000006 -0.000002 -0.000002 0.000002 0.000004 0.000009 0.268617 -1.917661 15.946608 0.067460 -0.968211 7.971039 -0.000003 -0.000002 0.000000 0.000005 0.000002 -0.000010 0.268629 -1.917672 15.946610 0.067454 -0.968189 7.971046 -0.000003 -0.000002 0.000002 0.000002 0.000002 -0.000000 0.268623 -1.917668 15.946596 0.067443 -0.968197 7.971054 -0.000001 -0.000001 -0.000000 -63.190602 3.021334 26.423784 41.115017 -2.445960 2.750350 3.158769 0.567850 -19.918582 -5.302591 -0.000001 0.000007 -0.000000 0.000000 -0.000000 -50.963323 -4.805350 -16.372925 50.910331 -3.269714 2.042675 -15.407098 -1.936541 12.676717 -1.688588 -0.000009 -0.000002 -0.000000 -0.000000 -0.000000 
-4.445783 181.271118 -29.036446 20.317765 -15.996788 1.243113 7.724192 0.227252 -1.673087 12.437794 -0.304387 -2.824378 12.438292 -0.069271 -2.867563 1.700022 -0.880763 -7.056081 -43.154600 -11.462020 3.277941 0.000001 0.000001 -0.000001 0.000001 0.000001 -0.000001 0.000001 0.000001 -0.000001 1.420162 0.681036 -11.843087 -6.621242 -28.586428 -29.081689 0.000009 -57.878374 -0.000008 39.060950 -12.491240 17.881825 0.006943 0.309971 -2.569369 0.112689 1.243123 -10.358917 0.028146 0.623139 -5.170852 -0.000000 -0.000002 -0.000002 -2.277831 -23.343941 1.940920 5.402101 26.915119 2.051651 0.256264 11.035672 3.436395 -0.000001 0.000002 -0.000006 0.007037 0.311899 -2.585348 0.112335 1.241212 -10.342925 0.028144 0.623149 -5.170853 -0.000001 -0.000004 -0.000003 0.007035 0.311900 -2.585347 0.112334 1.241218 -10.342928 0.028146 0.623142 -5.170859 0.000000 0.000000 -0.000000 0.172219 4.362847 -2.081655 0.105441 -2.814073 -10.845368 0.028144 0.623151 -5.170852 0.000000 0.000002 -0.000001 2.448296 5.168498 2.721644 -34.173270 24.933402 75.352191 0.000013 53.019723 -0.000025 22.417963 -0.236946 -2.654792 0.000004 -0.000002 -0.000005 0.268615 -1.917671 15.946613 0.067456 -0.968184 7.971057 0.000002 0.000003 -0.000002 -1.832386 0.576351 -5.943169 6.154531 -26.178387 -1.323831 -0.494191 -8.611085 -3.004291 -0.000005 0.000001 0.000002 -0.000000 0.000002 -0.000000 0.268632 -1.917661 15.946607 0.067454 -0.968194 7.971043 0.000004 -0.000000 -0.000002 -0.000002 0.000002 -0.000010 0.268627 -1.917672 15.946608 0.067452 -0.968183 7.971066 0.000000 -0.000001 0.000003 -0.000003 -0.000003 -0.000001 0.268624 -1.917668 15.946605 0.067458 -0.968183 7.971064 0.000000 -0.000001 0.000000 -63.077063 2.619171 26.174350 39.891331 -2.122634 2.740952 4.064970 0.424106 -20.297816 -5.150193 -0.000000 0.000011 -0.000000 0.000000 0.000000 -51.416493 -4.468191 -15.982492 50.620926 -3.530178 1.999403 -15.244899 -1.898211 12.486851 -1.405315 0.000010 -0.000002 0.000000 -0.000002 0.000000 
-5.090962 181.473770 -29.910912 21.052540 -15.967867 1.563678 7.933492 0.088927 -1.650700 12.878578 -0.549828 -2.772237 12.883157 -0.298604 -2.822098 1.116462 -0.801264 -7.110329 -43.712565 -11.130789 3.314625 -0.000000 0.000000 0.000000 -0.000000 0.000000 0.000000 -0.000000 0.000000 0.000000 1.417838 0.540211 -11.570899 -7.226208 -27.970823 -29.291888 0.000010 -58.547726 0.000018 38.632014 -12.206884 18.425117 0.006945 0.309977 -2.569372 0.112689 1.243107 -10.358967 0.028138 0.623174 -5.170874 -0.000001 0.000000 -0.000001 -2.277829 -23.343939 1.940905 5.402103 26.915098 2.051658 0.256267 11.035691 3.436384 0.000001 0.000001 -0.000002 0.007037 0.311894 -2.585346 0.112342 1.241224 -10.342998 0.028143 0.623156 -5.170885 0.000000 0.000000 -0.000002 0.007032 0.311896 -2.585359 0.112349 1.241235 -10.342989 0.028142 0.623153 -5.170880 -0.000001 0.000000 0.000001 0.172217 4.362826 -2.081673 0.105462 -2.814061 -10.845429 0.028136 0.623151 -5.170873 0.000000 0.000001 0.000002 2.345106 5.499396 2.310932 -32.547016 25.693437 74.590624 0.000010 56.153345 -0.000006 22.178900 0.339361 -2.476116 -0.000006 -0.000002 -0.000000 0.268627 -1.917655 15.946608 0.067462 -0.968192 7.971047 0.000000 0.000001 -0.000003 -1.832381 0.576350 -5.943166 6.154533 -26.178402 -1.323857 -0.494185 -8.611063 -3.004265 -0.000002 -0.000000 0.000001 -0.000005 0.000006 0.000011 0.268631 -1.917670 15.946593 0.067466 -0.968178 7.971056 -0.000001 0.000002 -0.000002 -0.000010 -0.000004 -0.000003 0.268629 -1.917661 15.946608 0.067462 -0.968180 7.971060 -0.000000 -0.000003 0.000004 0.000000 -0.000001 0.000004 0.268627 -1.917662 15.946603 0.067463 -0.968191 7.971049 -0.000003 0.000000 0.000000 -63.038282 2.144489 25.933849 38.397640 -1.616665 2.757734 5.293779 0.220893 -20.757300 -5.144639 -0.000000 0.000005 0.000000 -0.000000 0.000000 -52.187433 -4.001574 -15.496169 50.448481 -3.857461 1.956147 -15.124353 -1.869791 12.305338 -1.114137 -0.000019 -0.000000 -0.000000 0.000001 0.000000 
